<?xml version="1.0" standalone="no"?>
<!DOCTYPE svg PUBLIC "-//W3C//DTD SVG 20010904//EN"
 "http://www.w3.org/TR/2001/REC-SVG-20010904/DTD/svg10.dtd">
<svg version="1.0" xmlns="http://www.w3.org/2000/svg"
 width="3664.000000pt" height="908.000000pt" viewBox="0 0 3664.000000 908.000000"
 preserveAspectRatio="xMidYMid meet">

<g transform="translate(0.000000,908.000000) scale(0.100000,-0.100000)"
fill="#000000" stroke="none">
<path d="M0 7200 l0 -30 18320 0 18320 0 0 30 0 30 -18320 0 -18320 0 0 -30z"/>
<path d="M2766 6717 c-98 -193 -536 -1065 -973 -1937 -437 -872 -819 -1630
-848 -1685 -29 -55 -64 -135 -79 -179 -23 -70 -26 -93 -26 -222 0 -112 3 -146
13 -150 21 -8 484 -10 492 -2 4 4 11 51 15 105 8 116 14 130 150 393 55 107
220 436 366 730 500 1006 854 1715 953 1909 55 106 101 200 103 209 5 25 24
24 42 -2 8 -14 80 -150 158 -303 78 -153 175 -341 215 -418 40 -77 182 -360
315 -630 134 -269 322 -645 418 -835 275 -543 289 -573 296 -602 l6 -28 -576
0 -576 0 0 303 c0 166 -3 319 -6 340 l-7 37 -253 0 -254 0 2 -597 3 -598 1258
-3 1258 -2 -7 22 c-3 13 -401 811 -883 1773 -482 963 -928 1856 -991 1985
-106 217 -161 323 -307 600 -53 101 -79 140 -92 140 -3 0 -86 -159 -185 -353z"/>
<path d="M25500 6172 c-182 -60 -300 -211 -355 -454 -24 -105 -36 -343 -25
-472 19 -213 57 -347 135 -467 69 -107 166 -169 310 -196 274 -53 502 112 579
420 36 139 50 287 43 445 -17 386 -116 598 -327 701 -71 34 -81 36 -190 38
-89 2 -127 -1 -170 -15z m267 -162 c108 -48 178 -171 214 -380 21 -121 16
-424 -9 -542 -49 -231 -153 -350 -308 -350 -78 -1 -128 16 -180 58 -84 68
-141 193 -165 362 -18 128 -6 445 20 550 46 181 125 279 261 323 35 11 117 1
167 -21z"/>
<path d="M35106 6174 c-67 -16 -177 -72 -221 -112 -79 -73 -150 -197 -185
-324 -37 -136 -50 -387 -29 -549 31 -243 106 -400 239 -500 79 -60 149 -88
264 -105 150 -23 292 -3 436 63 95 43 99 51 67 126 -14 34 -29 61 -34 60 -4
-2 -48 -19 -97 -39 -227 -93 -436 -72 -547 55 -52 58 -105 169 -125 256 -24
111 -29 348 -10 488 32 225 99 339 239 402 110 51 251 50 399 -1 113 -39 122
-40 136 -9 7 14 12 32 12 39 0 8 7 19 15 26 30 25 17 46 -42 73 -137 61 -376
85 -517 51z"/>
<path d="M6481 6157 c-27 -13 -30 -22 -225 -617 -58 -179 -151 -460 -205 -625
-54 -165 -97 -303 -95 -306 7 -13 171 -10 181 3 6 7 31 81 57 163 26 83 64
200 84 260 l37 110 247 3 c197 2 249 0 260 -11 13 -13 35 -77 129 -377 23 -74
49 -141 58 -148 12 -10 36 -12 96 -7 44 4 81 8 82 9 3 2 -26 92 -73 226 -18
52 -83 250 -144 440 -62 190 -125 383 -140 430 -16 47 -47 144 -70 215 -61
193 -78 232 -103 239 -39 10 -151 6 -176 -7z m108 -263 c2 -10 39 -126 82
-258 44 -131 82 -258 86 -282 l6 -44 -197 0 c-133 0 -196 3 -196 11 0 6 32
108 71 227 39 119 82 252 96 295 24 75 43 94 52 51z"/>
<path d="M7504 6164 l-21 -5 0 -770 -1 -770 27 -11 c17 -6 114 -8 271 -5 341
7 419 29 545 155 69 69 97 122 120 225 20 91 15 141 -22 235 -35 87 -104 156
-207 206 l-79 39 40 21 c106 56 161 113 204 210 44 101 5 259 -86 348 -50 48
-125 84 -213 103 -71 15 -531 30 -578 19z m403 -164 c62 -6 134 -17 160 -26
164 -55 195 -267 54 -369 -59 -44 -111 -54 -296 -57 l-150 -3 -3 220 c-1 121
0 225 2 232 6 16 78 17 233 3z m107 -637 c81 -20 126 -44 169 -92 53 -59 70
-98 75 -177 6 -97 -15 -160 -77 -223 -77 -79 -191 -110 -408 -111 l-103 0 0
309 0 310 48 3 c88 6 237 -4 296 -19z"/>
<path d="M8856 6162 c-3 -3 -6 -353 -6 -778 l0 -772 28 -4 c15 -2 54 -3 87 -3
l60 0 3 381 2 381 38 7 c20 3 139 6 263 6 l226 0 6 -167 c4 -91 7 -264 7 -384
l0 -218 33 -6 c17 -4 57 -5 87 -3 l55 3 1 770 c1 503 -2 774 -8 783 -11 13
-120 16 -152 3 -23 -9 -23 -13 -25 -373 l-1 -248 -265 0 -265 0 -2 313 -3 312
-82 1 c-45 1 -84 -1 -87 -4z"/>
<path d="M10583 6163 c-38 -7 -23 32 -243 -643 -62 -190 -153 -466 -201 -613
-49 -148 -89 -277 -89 -288 0 -17 8 -19 84 -19 55 0 87 4 94 13 5 6 40 107 76
222 72 230 97 301 112 313 5 4 119 6 253 2 l245 -5 17 -45 c10 -25 46 -133 79
-240 34 -107 66 -207 71 -221 13 -33 49 -42 137 -33 73 8 72 1 27 119 -14 39
-58 167 -97 285 -38 118 -94 287 -123 375 -29 88 -83 255 -119 370 -90 282
-124 376 -143 397 -13 14 -31 18 -87 17 -39 -1 -81 -4 -93 -6z m97 -258 c0 -8
30 -106 66 -217 36 -112 74 -234 85 -273 11 -38 22 -78 25 -87 5 -17 -9 -18
-195 -18 -154 0 -201 3 -201 12 0 7 27 94 59 193 33 99 74 225 91 280 18 55
36 108 42 118 10 19 28 14 28 -8z"/>
<path d="M13195 6160 l-170 -5 -3 -58 c-4 -83 1 -87 122 -87 55 0 111 -3 124
-6 l22 -6 0 -619 0 -619 -135 0 -136 0 3 -72 3 -73 40 -6 c53 -9 606 -12 639
-3 25 6 26 9 26 80 l0 73 -127 3 -128 3 -3 609 c-1 408 1 613 8 620 6 6 63 13
128 16 l117 5 3 71 c3 67 1 72 -20 78 -25 6 -243 5 -513 -4z"/>
<path d="M14298 6163 c-17 -4 -18 -50 -18 -778 l0 -774 43 -6 c23 -4 62 -5 87
-3 l45 3 2 594 c1 326 4 596 7 598 7 7 72 -132 314 -668 39 -85 91 -198 115
-250 24 -52 61 -132 82 -178 45 -97 52 -101 166 -101 l79 0 0 779 c0 701 -2
779 -16 785 -20 8 -93 8 -133 0 l-31 -6 -2 -597 -3 -596 -51 105 c-29 58 -98
206 -154 330 -89 198 -128 282 -237 520 -71 154 -105 221 -119 235 -11 11 -35
15 -87 14 -40 -1 -80 -3 -89 -6z"/>
<path d="M15735 6160 l-190 -5 -3 -53 c-2 -31 2 -60 9 -68 9 -11 55 -14 240
-14 l229 0 1 -552 c2 -786 3 -845 12 -854 4 -5 43 -8 85 -9 l77 0 5 700 5 700
30 6 c17 4 121 7 231 8 161 1 204 4 213 15 7 8 11 37 9 68 l-3 53 -70 6 c-82
8 -606 7 -880 -1z"/>
<path d="M17223 6163 l-143 -4 0 -773 0 -774 123 -7 c158 -8 673 -2 684 8 4 5
8 38 8 75 l0 67 -315 5 -315 5 -3 294 c-2 229 1 296 10 303 7 4 138 8 290 8
322 0 311 -3 306 89 l-3 56 -300 5 c-165 3 -301 7 -303 8 -1 1 -1 109 0 240
l3 237 299 3 c201 1 304 6 313 13 16 14 18 125 2 135 -13 8 -430 12 -656 7z"/>
<path d="M19748 6163 c-17 -4 -18 -50 -18 -778 l0 -774 43 -6 c23 -4 62 -5 87
-3 l45 3 0 603 c0 331 3 602 6 602 6 0 128 -250 167 -340 44 -103 247 -548
325 -712 40 -83 73 -141 86 -148 12 -6 54 -10 99 -8 l77 3 0 780 0 780 -77 0
c-42 0 -80 -4 -85 -8 -4 -5 -10 -275 -13 -600 l-5 -592 -32 65 c-17 36 -117
254 -222 485 -105 231 -216 472 -248 535 l-58 115 -80 2 c-44 0 -88 -1 -97 -4z"/>
<path d="M21478 6164 c-25 -8 -49 -77 -300 -849 -39 -121 -84 -258 -99 -303
-104 -301 -131 -395 -117 -403 7 -5 46 -9 85 -9 64 0 74 3 87 23 8 12 42 110
76 217 33 107 70 221 82 253 l20 57 249 0 c285 0 257 10 297 -105 17 -50 105
-328 127 -403 10 -33 37 -43 120 -41 59 1 75 5 75 17 0 8 -47 154 -104 326
-57 171 -132 401 -168 511 -180 552 -222 677 -234 693 -10 13 -30 17 -96 19
-46 1 -91 -1 -100 -3z m189 -525 c50 -151 92 -286 92 -301 l1 -28 -200 0
c-110 0 -200 2 -200 4 0 2 33 105 74 227 40 123 84 259 96 302 13 43 28 76 34
74 6 -2 52 -127 103 -278z"/>
<path d="M22540 6161 c-102 -4 -186 -8 -188 -9 -2 -1 -2 -28 0 -59 3 -51 6
-58 28 -64 14 -4 123 -7 243 -8 l217 -1 0 -704 0 -705 53 -6 c28 -4 68 -5 87
-3 l35 3 5 705 5 705 228 5 c214 5 230 6 244 25 13 18 14 97 1 110 -8 8 -774
12 -958 6z"/>
<path d="M24089 6163 l-156 -3 -6 -42 c-4 -33 0 -93 7 -99 0 -1 56 -4 124 -8
67 -4 127 -12 132 -17 7 -7 9 -230 8 -620 l-3 -609 -132 -3 -133 -3 0 -73 0
-74 33 -5 c51 -8 399 -9 545 -1 l132 7 0 73 0 74 -130 0 -130 0 0 619 0 619
23 6 c12 3 62 6 110 6 120 0 127 5 127 85 l0 65 -78 0 c-44 0 -132 2 -198 3
-65 2 -189 2 -275 0z"/>
<path d="M26553 6158 c-8 -13 -6 -1538 2 -1546 2 -3 39 -5 82 -6 l78 -1 7 430
c4 237 7 505 5 598 -1 92 1 167 5 167 6 0 81 -150 129 -260 15 -36 44 -98 63
-138 20 -40 36 -74 36 -77 0 -4 109 -244 205 -450 20 -44 53 -116 72 -160 49
-108 58 -115 148 -115 40 0 80 3 89 6 14 6 16 83 16 779 0 696 -2 773 -16 779
-20 8 -78 8 -127 0 l-37 -7 2 -593 c2 -327 0 -594 -3 -594 -8 0 -81 140 -112
215 -14 33 -55 122 -91 199 -36 76 -66 139 -66 141 0 2 -34 79 -76 172 -42 92
-85 188 -96 213 -55 121 -111 227 -130 243 -25 21 -172 25 -185 5z"/>
<path d="M28297 6163 c-23 -6 -34 -34 -132 -328 -255 -768 -396 -1208 -391
-1221 4 -10 26 -14 85 -14 98 0 86 -18 171 252 75 240 94 290 112 302 8 5 114
5 252 1 l237 -7 19 -42 c15 -33 66 -188 151 -463 8 -24 18 -33 41 -38 35 -8
158 3 158 14 0 4 -23 72 -51 152 -28 79 -59 171 -69 204 -10 33 -41 130 -69
215 -28 85 -96 295 -152 465 -152 470 -152 468 -176 493 -19 19 -32 22 -95 21
-40 -1 -81 -3 -91 -6z m103 -251 c0 -9 25 -94 55 -187 70 -213 125 -393 125
-406 0 -5 -82 -9 -200 -9 -126 0 -200 4 -200 10 0 5 32 106 70 223 39 117 70
216 70 220 0 4 14 44 31 87 29 76 49 101 49 62z"/>
<path d="M29378 6163 l-28 -4 0 -773 0 -773 98 -6 c124 -9 631 -7 697 1 l50 7
3 73 3 72 -336 0 -335 0 0 33 c0 17 0 330 0 694 0 647 0 662 -19 673 -19 10
-78 11 -133 3z"/>
<path d="M32262 6163 c-142 -4 -143 -4 -152 -29 -6 -14 -10 -41 -10 -59 0 -51
25 -63 152 -67 59 -2 110 -7 115 -12 4 -4 8 -283 8 -619 l0 -612 -132 -3 -133
-3 0 -73 0 -73 61 -7 c80 -8 542 -8 603 0 l46 7 0 73 0 74 -130 0 -130 0 0
619 0 619 38 4 c20 3 73 6 117 7 96 2 105 10 105 92 l0 56 -37 7 c-36 6 -213
5 -521 -1z"/>
<path d="M33383 6163 l-23 -4 0 -774 0 -774 43 -6 c23 -4 62 -5 87 -3 l45 3 3
598 c1 328 6 597 10 597 8 0 127 -251 301 -635 242 -537 248 -547 281 -556 14
-4 55 -7 93 -8 64 -1 68 0 77 25 11 28 12 1228 1 1424 l-6 115 -50 3 c-27 2
-65 1 -82 -3 l-33 -6 0 -596 0 -597 -20 22 c-11 12 -20 24 -20 28 0 4 -13 35
-29 68 -17 34 -55 117 -87 186 -31 69 -89 197 -129 285 -80 176 -173 377 -229
498 -52 110 -61 117 -143 116 -38 -1 -78 -4 -90 -6z"/>
<path d="M18397 6153 c-4 -3 -7 -352 -7 -774 l0 -768 43 -6 c23 -4 62 -5 87
-3 l45 3 5 350 5 350 92 3 91 3 35 -43 c19 -24 59 -81 88 -128 28 -47 95 -150
147 -230 52 -80 115 -176 140 -215 25 -38 52 -76 61 -82 18 -16 221 -14 221 2
0 8 -118 185 -147 220 -4 6 -42 62 -83 125 -41 63 -77 117 -80 120 -15 15
-170 251 -170 259 0 5 18 16 40 25 67 26 168 95 205 139 46 53 80 126 96 203
11 53 10 71 -4 130 -24 95 -53 151 -107 203 -52 51 -127 89 -215 107 -63 14
-576 20 -588 7z m511 -164 c76 -15 112 -32 149 -71 44 -46 63 -96 63 -171 0
-113 -55 -192 -170 -246 -52 -24 -64 -26 -215 -26 l-160 0 -3 259 c-2 201 1
261 10 268 17 10 256 1 326 -13z"/>
<path d="M36494 4841 c-48 -30 -74 -69 -74 -113 0 -109 82 -175 175 -140 l45
16 0 112 c0 107 -1 111 -24 122 -49 22 -90 23 -122 3z"/>
<path d="M3080 4620 l-45 -7 42 -1 42 -2 4 -47 c4 -44 4 -43 4 10 0 31 -1 56
-1 55 -1 0 -21 -4 -46 -8z"/>
<path d="M3156 4483 c4 -65 8 -120 10 -122 2 -2 4 50 4 117 0 75 -4 122 -10
122 -7 0 -8 -41 -4 -117z"/>
<path d="M3124 4200 c0 -91 2 -128 3 -82 2 45 2 119 0 165 -1 45 -3 8 -3 -83z"/>
<path d="M5970 4191 l-115 -6 4 -30 c1 -16 8 -33 13 -36 6 -4 101 -10 212 -14
290 -9 27668 -2 27687 8 20 10 32 58 18 72 -11 11 -27601 16 -27819 6z"/>
<path d="M6478 3423 l-78 -4 0 -344 0 -345 59 0 c44 0 60 4 65 16 3 9 6 121 6
250 0 220 8 280 24 187 9 -47 72 -323 87 -378 16 -58 35 -75 85 -75 23 0 50 3
58 6 19 7 39 72 98 319 l43 180 3 -240 c3 -272 0 -265 83 -265 40 0 48 3 53
23 3 12 3 167 -1 345 l-6 322 -92 0 c-62 0 -96 -4 -103 -12 -11 -15 -51 -145
-82 -268 -37 -148 -41 -160 -49 -160 -5 0 -23 55 -40 123 -78 299 -90 332
-125 325 -6 -1 -46 -4 -88 -5z"/>
<path d="M9002 3409 c-38 -25 -72 -85 -72 -128 0 -30 -3 -34 -49 -69 -19 -15
-23 -24 -17 -45 4 -17 13 -27 24 -27 38 0 42 -18 42 -206 0 -145 3 -184 14
-193 8 -7 37 -11 68 -9 l53 3 5 195 5 195 45 5 45 5 0 45 0 45 -52 8 c-40 6
-53 13 -53 26 0 31 30 60 68 67 68 12 94 58 50 88 -34 24 -135 21 -176 -5z"/>
<path d="M12910 3408 c-95 -48 -116 -142 -52 -233 l30 -43 -51 -39 c-28 -21
-62 -56 -74 -78 -41 -72 -25 -184 34 -237 36 -33 107 -58 166 -58 65 0 142 16
172 37 28 19 63 16 92 -7 39 -30 72 -25 109 16 18 19 31 41 28 48 -2 6 -20 20
-40 31 -56 30 -61 49 -28 117 32 67 29 75 -39 84 -43 6 -50 4 -70 -19 -12 -15
-27 -23 -32 -19 -13 9 -65 79 -65 87 0 4 23 32 51 63 59 64 73 94 64 139 -20
108 -181 168 -295 111z m148 -84 c34 -10 31 -69 -5 -100 -16 -13 -36 -24 -45
-24 -18 0 -58 57 -58 83 0 38 49 56 108 41z m-82 -307 c115 -135 117 -137 104
-152 -7 -8 -35 -22 -63 -30 -46 -14 -53 -14 -86 3 -48 23 -75 70 -61 106 13
34 62 96 76 96 6 0 19 -10 30 -23z"/>
<path d="M20167 3410 c-43 -27 -59 -57 -66 -119 l-6 -56 -91 0 c-70 0 -96 -4
-110 -16 -11 -9 -29 -22 -41 -28 -21 -11 -23 -9 -23 14 0 24 -3 25 -55 25
l-55 0 0 -245 0 -245 23 -6 c13 -3 41 -4 63 -2 l39 3 6 169 c5 166 5 169 31
191 21 18 44 24 113 30 48 4 91 3 96 -2 5 -5 10 -94 11 -198 l3 -190 60 0 60
0 3 197 2 197 48 3 47 3 0 45 0 45 -53 9 c-50 9 -53 11 -47 35 10 39 22 49 68
56 23 4 48 12 55 17 19 16 14 55 -10 72 -32 22 -134 20 -171 -4z"/>
<path d="M22800 3414 c-46 -19 -88 -68 -96 -110 -7 -40 18 -116 48 -146 23
-23 15 -36 -37 -68 -18 -11 -45 -38 -61 -61 -24 -35 -28 -51 -28 -108 -1 -59
3 -73 29 -111 70 -100 212 -118 376 -47 34 15 37 15 72 -9 52 -35 86 -31 119
13 22 28 25 40 17 54 -5 11 -15 19 -22 19 -8 0 -26 14 -43 31 l-29 30 28 50
c36 65 35 85 -4 93 -57 11 -77 7 -99 -21 l-22 -28 -39 45 c-21 25 -39 50 -39
56 0 5 14 23 31 40 96 89 113 156 57 219 -45 52 -96 75 -165 75 -32 -1 -74 -8
-93 -16z m147 -92 c6 -4 15 -20 18 -35 6 -22 2 -32 -25 -57 -41 -38 -60 -38
-87 3 -27 39 -29 60 -7 81 16 16 80 21 101 8z m-57 -339 c96 -105 98 -123 18
-147 -74 -21 -123 -3 -154 56 -13 25 -13 32 2 61 17 34 63 87 75 87 4 0 30
-26 59 -57z"/>
<path d="M13727 3413 c-10 -17 -2 -662 9 -673 7 -7 93 -9 260 -8 l249 3 3 51
3 51 -77 6 c-42 4 -131 7 -196 7 l-119 0 3 93 3 92 165 3 c116 2 166 6 172 15
4 6 8 31 8 54 l0 43 -172 2 -173 3 -3 71 -3 71 68 6 c37 4 120 7 184 7 128 0
129 0 129 64 0 32 -2 34 -46 40 -66 9 -462 8 -467 -1z"/>
<path d="M18570 3417 c-3 -3 -3 -158 0 -344 l5 -338 58 -3 c40 -2 59 1 62 10
2 7 6 65 7 128 l3 115 105 6 c132 7 178 20 217 61 44 47 63 90 63 146 0 60
-15 106 -48 151 -42 56 -75 64 -282 69 -102 2 -187 2 -190 -1z m311 -127 c71
-20 91 -95 39 -145 -30 -29 -84 -43 -166 -44 -39 -1 -42 1 -48 30 -8 42 -8
154 1 162 10 11 134 8 174 -3z"/>
<path d="M23612 3078 l3 -343 60 0 60 0 6 105 c4 58 7 124 8 148 l1 42 118 0
c149 0 160 3 168 47 4 21 2 39 -5 46 -8 8 -64 14 -149 17 l-137 5 0 75 0 75
45 7 c25 3 100 7 168 7 l122 1 0 55 0 55 -235 0 -235 0 2 -342z"/>
<path d="M24216 3412 c-2 -4 -7 -152 -10 -329 -4 -244 -2 -325 7 -338 10 -12
25 -16 62 -13 l50 3 3 343 2 342 -54 0 c-30 0 -57 -4 -60 -8z"/>
<path d="M10347 3364 c-48 -35 -67 -66 -67 -107 0 -16 -9 -26 -29 -33 -25 -10
-28 -16 -27 -53 1 -35 4 -41 19 -37 39 10 47 -17 47 -172 0 -161 11 -204 60
-230 28 -15 116 -10 149 8 35 18 25 90 -13 90 -11 0 -31 3 -44 6 -22 6 -23 8
-20 147 l3 141 43 9 c41 8 42 9 42 47 0 42 -4 45 -70 52 -24 3 -25 5 -25 82 0
44 -4 80 -10 82 -5 2 -32 -12 -58 -32z"/>
<path d="M16520 3371 c-59 -37 -68 -49 -72 -96 l-3 -40 -84 3 c-71 3 -86 0
-105 -16 -11 -11 -31 -25 -43 -31 -20 -10 -22 -8 -25 17 -2 15 -9 27 -15 26
-7 -1 -31 -2 -53 -2 l-40 -2 0 -250 0 -250 59 0 c72 0 71 -2 71 161 0 139 5
168 34 202 19 22 30 25 111 28 l90 4 5 -160 c7 -221 25 -252 144 -240 73 6 88
18 84 64 -2 30 -7 36 -28 39 -76 8 -71 -3 -68 155 l3 142 35 3 c44 4 57 21 52
66 -4 34 -6 35 -51 38 l-46 3 4 83 c1 45 -1 82 -5 82 -5 0 -29 -13 -54 -29z"/>
<path d="M7336 3239 c-29 -4 -63 -19 -85 -37 -39 -31 -75 -92 -62 -105 16 -16
99 -10 128 10 63 45 131 36 153 -18 7 -16 11 -31 9 -33 -2 -2 -55 -16 -118
-31 -98 -24 -118 -33 -152 -65 -35 -33 -39 -42 -39 -84 0 -70 23 -111 77 -137
55 -27 141 -22 184 10 35 26 40 26 62 0 14 -16 27 -19 70 -17 l52 3 -3 120
c-5 215 -12 283 -36 318 -38 57 -134 84 -240 66z m137 -315 c-3 -50 -18 -77
-53 -97 -39 -23 -63 -21 -99 9 -52 43 -37 77 49 107 95 34 106 32 103 -19z"/>
<path d="M16904 3240 c-33 -7 -90 -43 -112 -70 -7 -8 -25 -37 -39 -65 -23 -42
-27 -62 -27 -127 0 -66 5 -85 31 -135 20 -39 44 -68 74 -88 40 -27 51 -30 124
-29 89 1 128 15 183 67 34 33 42 71 16 81 -38 14 -91 6 -120 -20 -45 -40 -64
-44 -106 -23 -42 21 -89 96 -66 104 7 2 82 5 166 7 170 3 176 6 166 68 -16 91
-69 172 -133 204 -53 27 -113 37 -157 26z m100 -121 c30 -24 60 -75 51 -89 -8
-12 -192 -13 -199 -2 -10 17 31 76 65 94 43 23 50 23 83 -3z"/>
<path d="M19335 3239 c-46 -13 -113 -75 -141 -132 -71 -138 -1 -343 128 -378
118 -32 278 32 281 113 2 33 2 33 -48 36 -44 3 -55 -1 -85 -28 -18 -16 -44
-30 -57 -30 -37 0 -81 27 -98 60 -30 58 -26 60 98 60 61 0 136 3 166 7 l53 6
-5 57 c-8 92 -61 176 -130 209 -51 23 -122 32 -162 20z m136 -146 c49 -56 39
-68 -65 -71 -116 -4 -121 -1 -100 40 26 50 76 80 116 70 10 -2 32 -20 49 -39z"/>
<path d="M22000 3240 c-73 -13 -129 -59 -170 -141 -25 -49 -27 -165 -4 -234
30 -86 112 -145 202 -145 75 0 133 21 179 65 33 32 44 49 41 67 -3 20 -9 23
-53 26 -44 3 -55 -1 -85 -28 -37 -33 -67 -37 -110 -15 -30 15 -75 87 -63 99 4
3 71 6 149 6 162 0 194 7 194 45 0 35 -34 120 -66 167 -44 63 -137 101 -214
88z m108 -146 c53 -56 43 -68 -62 -72 -114 -4 -121 -1 -102 35 16 31 53 67 76
76 26 9 54 -3 88 -39z"/>
<path d="M24602 3239 c-56 -13 -132 -84 -132 -122 0 -26 2 -27 50 -27 29 0 61
7 74 15 59 39 134 36 156 -5 19 -35 11 -46 -42 -59 -143 -35 -185 -51 -221
-86 -30 -29 -37 -43 -37 -73 0 -55 38 -123 80 -145 46 -24 141 -18 181 12 35
26 51 26 67 1 20 -33 140 -25 127 9 -4 9 -10 97 -14 196 -8 205 -17 232 -80
265 -47 23 -150 33 -209 19z m158 -303 c0 -52 -16 -84 -52 -106 -44 -26 -63
-25 -104 7 -47 35 -42 61 16 90 50 25 96 41 123 42 13 1 17 -7 17 -33z"/>
<path d="M7900 3205 c-25 -19 -48 -35 -52 -35 -5 0 -8 14 -8 30 l0 31 -57 -3
-58 -3 0 -245 0 -245 60 0 60 0 5 167 5 167 35 35 c35 37 73 46 109 26 31 -16
36 -39 41 -220 l5 -175 60 0 60 0 0 205 c0 182 -2 209 -18 233 -30 46 -75 67
-142 66 -52 0 -66 -5 -105 -34z"/>
<path d="M9325 3221 c-50 -22 -97 -76 -93 -105 5 -34 78 -34 144 -1 76 38 123
26 139 -35 6 -25 4 -26 -110 -54 -102 -25 -122 -33 -156 -66 -35 -33 -39 -42
-39 -84 0 -57 21 -104 58 -131 47 -35 164 -26 224 17 14 10 21 9 38 -10 15
-16 32 -22 65 -22 51 0 77 8 69 22 -3 5 -10 92 -14 193 -8 207 -21 247 -86
279 -49 23 -186 22 -239 -3z m190 -297 c-8 -56 -20 -77 -56 -98 -37 -22 -57
-20 -96 10 -55 42 -40 76 47 107 105 37 114 36 105 -19z"/>
<path d="M9859 3216 c-85 -46 -124 -121 -123 -238 2 -125 41 -194 132 -236 48
-22 64 -24 125 -19 56 5 80 12 112 34 46 33 99 107 91 128 -5 14 -65 35 -102
35 -15 0 -26 -10 -34 -31 -14 -32 -62 -69 -90 -69 -9 0 -32 13 -51 30 -55 45
-73 133 -43 209 19 48 54 73 101 73 27 0 42 -8 69 -37 26 -29 39 -36 56 -31
13 4 36 9 51 13 39 8 43 25 14 68 -44 65 -90 88 -182 92 -69 3 -86 0 -126 -21z"/>
<path d="M11244 3233 l-41 -4 -7 -91 c-8 -115 -8 -371 0 -392 5 -12 21 -16 65
-16 32 0 60 1 60 3 1 1 4 77 8 168 l6 166 30 27 c25 22 37 26 72 23 41 -4 43
-3 63 37 l20 41 -25 23 c-38 32 -91 29 -135 -8 -42 -37 -48 -37 -52 -3 -3 30
-6 31 -64 26z"/>
<path d="M11684 3214 c-106 -72 -150 -215 -103 -339 48 -129 142 -176 289
-144 65 14 144 83 138 121 -3 20 -9 23 -55 26 -45 3 -55 -1 -86 -28 -39 -34
-75 -38 -113 -13 -27 17 -67 86 -57 97 4 3 59 6 123 6 65 0 138 3 164 6 44 6
46 8 46 38 0 92 -58 195 -131 232 -70 35 -161 34 -215 -2z m140 -84 c29 -11
81 -84 71 -99 -7 -13 -191 -15 -199 -3 -10 17 31 77 65 94 40 21 32 20 63 8z"/>
<path d="M12169 3232 l-46 -3 -6 -237 c-5 -269 -7 -262 74 -262 33 0 49 4 53
16 3 9 6 77 7 152 0 146 2 153 37 197 19 24 29 28 66 27 42 -2 45 0 65 38 21
40 21 40 1 60 -25 25 -101 28 -121 4 -7 -8 -25 -22 -41 -30 -27 -14 -28 -14
-28 10 0 30 -3 32 -61 28z"/>
<path d="M14367 3230 l-58 -5 31 -48 c17 -27 35 -54 40 -60 25 -30 58 -75 78
-104 l22 -31 -53 -69 c-70 -89 -117 -159 -117 -172 0 -7 25 -11 63 -11 74 0
85 8 136 88 18 28 36 52 40 52 4 0 27 -27 52 -61 24 -33 51 -65 61 -70 23 -12
135 -11 143 1 8 12 7 13 -92 144 -40 52 -73 102 -73 110 0 9 26 51 58 94 60
79 92 127 92 137 0 3 -31 5 -70 5 l-70 0 -47 -65 c-27 -35 -52 -64 -56 -65 -4
0 -10 8 -14 18 -15 42 -60 102 -83 109 -14 5 -51 6 -83 3z"/>
<path d="M15060 3209 c-54 -35 -60 -36 -60 -4 0 24 -3 25 -60 25 l-60 0 0
-345 0 -345 59 0 c44 0 60 4 65 16 3 9 6 60 6 115 0 62 4 99 10 99 6 0 32 -11
58 -25 57 -30 102 -32 158 -4 83 40 127 125 127 244 1 64 -4 89 -22 125 -47
93 -101 130 -183 129 -41 0 -63 -7 -98 -30z m119 -103 c72 -65 65 -218 -13
-269 -33 -22 -54 -21 -92 2 -42 26 -64 77 -64 148 0 47 5 66 25 94 45 60 95
69 144 25z"/>
<path d="M15605 3221 c-118 -55 -174 -180 -141 -311 32 -123 114 -185 245
-185 89 1 139 22 190 81 52 58 74 119 68 185 -9 107 -55 176 -149 225 -60 30
-153 33 -213 5z m159 -112 c36 -28 66 -90 66 -135 0 -54 -40 -117 -88 -138
-36 -16 -42 -16 -68 -3 -39 20 -69 55 -83 96 -16 48 -14 76 9 120 38 76 110
102 164 60z"/>
<path d="M17367 3232 l-47 -3 2 -247 3 -247 57 -3 c70 -4 67 -12 70 185 3 142
3 142 32 172 24 25 38 31 70 31 35 0 44 5 64 33 28 41 28 52 0 71 -36 26 -89
20 -134 -14 -48 -36 -54 -37 -54 -6 0 30 -3 32 -63 28z"/>
<path d="M21175 3210 c-61 -36 -65 -37 -65 -5 0 25 -2 26 -57 23 l-58 -3 0
-245 0 -245 59 -3 c41 -2 62 1 67 10 5 7 9 86 9 176 0 159 1 164 24 187 33 33
73 42 105 24 l26 -15 5 -182 c6 -207 4 -204 85 -200 l50 3 5 178 c5 172 6 180
28 198 13 10 40 21 59 25 53 10 73 -18 74 -105 1 -36 3 -115 5 -176 2 -60 4
-114 4 -118 0 -4 28 -7 63 -5 l62 3 0 195 c0 186 -1 197 -23 236 -30 52 -68
74 -126 74 -46 0 -114 -27 -144 -56 -18 -19 -26 -18 -48 7 -52 58 -132 65
-209 19z"/>
<path d="M24988 3233 c-25 -3 -38 -9 -38 -19 0 -18 95 -260 146 -371 44 -98
58 -113 103 -113 46 0 54 6 80 57 38 76 171 424 166 434 -10 15 -102 11 -118
-6 -9 -8 -32 -59 -53 -112 -20 -54 -45 -118 -54 -143 -10 -25 -21 -44 -26 -43
-5 1 -25 53 -45 115 -59 182 -74 210 -109 206 -8 -1 -32 -3 -52 -5z"/>
<path d="M25645 3221 c-80 -36 -136 -122 -143 -221 -8 -122 31 -196 132 -251
55 -30 63 -31 132 -26 108 8 180 61 227 166 39 88 1 236 -76 295 -73 56 -194
73 -272 37z m165 -117 c42 -36 60 -74 60 -131 0 -94 -83 -169 -154 -139 -93
39 -122 174 -53 248 51 55 99 62 147 22z"/>
<path d="M26905 3224 c-11 -9 -33 -22 -48 -30 -28 -15 -28 -15 -25 8 3 21 -1
23 -54 26 l-58 3 0 -251 0 -251 63 3 62 3 5 155 c3 85 11 164 17 175 24 43 50
58 93 52 43 -5 47 -2 70 58 8 20 6 29 -10 45 -24 24 -86 26 -115 4z"/>
<path d="M27194 3221 c-100 -45 -126 -183 -45 -240 14 -10 73 -33 131 -51 114
-35 130 -44 130 -70 0 -44 -110 -60 -157 -22 -67 54 -70 55 -120 45 -42 -8
-48 -12 -46 -31 7 -58 87 -117 172 -128 79 -10 174 8 218 42 45 34 77 104 69
149 -11 57 -46 79 -194 127 -144 47 -172 67 -117 88 48 18 108 12 144 -15 29
-20 41 -23 80 -18 25 3 52 11 60 19 12 11 8 20 -30 57 -27 27 -60 49 -84 56
-62 17 -164 13 -211 -8z"/>
<path d="M8320 3037 c0 -183 1 -196 23 -238 14 -27 36 -51 58 -61 61 -31 146
-20 196 26 15 14 30 26 33 26 3 0 11 -14 17 -31 11 -29 14 -30 65 -27 l53 3 3
248 2 247 -64 0 -64 0 -4 -174 c-3 -192 -4 -193 -72 -230 -32 -17 -39 -18 -62
-5 -48 25 -54 53 -54 239 l0 170 -65 0 -65 0 0 -193z"/>
<path d="M10604 3215 c-4 -8 -4 -97 -2 -198 4 -148 8 -189 22 -217 29 -57 61
-75 136 -75 60 0 70 3 108 34 24 18 44 32 45 30 2 -2 8 -17 15 -32 11 -26 15
-28 65 -25 l52 3 3 248 2 248 -62 -3 -63 -3 -5 -165 c-3 -102 -10 -173 -17
-186 -13 -23 -76 -64 -96 -64 -16 1 -52 31 -65 57 -7 13 -12 86 -13 192 l0
171 -60 0 c-44 0 -61 -4 -65 -15z"/>
<path d="M17997 3223 c-12 -11 -8 -98 5 -111 15 -15 72 -16 99 -2 14 8 19 21
19 55 0 34 -5 47 -19 55 -22 11 -94 14 -104 3z"/>
<path d="M20405 3176 c-4 -29 -5 -118 -3 -197 4 -153 14 -190 62 -231 49 -41
152 -35 213 13 l38 31 13 -32 c12 -30 14 -31 65 -28 l52 3 3 248 2 247 -65 0
-65 0 0 -169 c0 -188 -3 -197 -74 -235 -36 -19 -37 -19 -64 1 -47 35 -52 56
-52 236 l0 167 -59 0 -60 0 -6 -54z"/>
<path d="M26127 3223 c-11 -10 -8 -324 4 -373 5 -24 21 -59 35 -77 48 -63 159
-69 231 -12 l38 30 14 -31 c14 -29 18 -31 66 -28 l50 3 6 60 c3 33 3 145 1
248 l-5 188 -61 -3 -61 -3 -3 -165 c-2 -91 -8 -173 -13 -183 -15 -26 -88 -69
-108 -62 -10 3 -29 17 -42 31 -23 25 -24 31 -27 205 l-4 179 -57 0 c-32 0 -61
-3 -64 -7z"/>
<path d="M17996 2844 c-10 -27 -7 -92 6 -100 19 -12 100 -7 109 8 17 26 10 87
-10 98 -31 16 -98 13 -105 -6z"/>
</g>
</svg>
