<svg width="320" height="91" viewBox="0 0 320 91" fill="none" xmlns="http://www.w3.org/2000/svg">
<path d="M0.000244141 88.6929V78.8735H3.37365C5.56233 78.8735 6.43578 79.8173 6.43578 81.2229C6.43578 82.5181 5.69285 83.3414 4.93986 83.482V83.5121C6.22496 83.7029 6.85747 84.8374 6.85747 86.0824C6.85747 88.0202 5.59245 88.7129 3.8154 88.7129H0.000244141V88.6929ZM0.893804 83.241H3.12265C4.95994 83.241 5.56232 82.3474 5.56232 81.2229C5.56232 80.0583 4.85954 79.6266 2.93189 79.6266H0.893804V83.241ZM0.893804 87.9398H3.13267C5.0804 87.9398 5.98401 87.6788 5.98401 86.0623C5.98401 84.5161 4.88965 83.984 3.23307 83.984H0.883755V87.9398H0.893804Z" fill="#262626"/>
<path d="M12.8412 88.6929L16.4154 78.8735H17.4094L21.0739 88.6929H20.1703L19.0057 85.5201H14.7589L13.7448 88.6929H12.8412ZM15.06 84.7671H18.7146L16.8873 79.6266L15.06 84.7671Z" fill="#262626"/>
<path d="M38.7139 88.6929L42.288 78.8735H43.282L46.9465 88.6929H46.043L44.8783 85.5201H40.6315L39.6175 88.6929H38.7139ZM40.9327 84.7671H44.5872L42.7599 79.6266L40.9327 84.7671Z" fill="#262626"/>
<path d="M27.2685 88.6929V78.8735H28.152V87.9398H33.1519V88.6929H27.2685Z" fill="#262626"/>
<path d="M54.0347 80.0683H54.0046V88.6929H53.1211V78.8735H54.115L59.5064 87.5081H59.5265V78.8735H60.41V88.6929H59.3859L54.0347 80.0683Z" fill="#262626"/>
<path d="M74.1445 81.8256C73.783 80.2392 72.7991 79.6268 71.2028 79.6268C68.9539 79.6268 67.98 81.5545 67.98 83.7633C67.98 85.8517 68.743 87.9501 71.2831 87.9501C72.8895 87.9501 73.8834 86.8657 74.2348 85.3898H75.1585C74.7469 87.1971 73.6124 88.7031 71.1124 88.7031C68.231 88.7031 67.0965 86.434 67.0965 83.7935C67.0965 80.2292 68.9639 78.8838 71.4337 78.8838C73.3513 78.8838 74.7468 79.9079 75.048 81.8356H74.1445V81.8256Z" fill="#262626"/>
<path d="M81.8952 88.6929V78.8735H88.0998V79.6266H82.7787V83.241H87.5878V83.994H82.7787V87.9499H88.2303V88.7029H81.8952V88.6929Z" fill="#262626"/>
<path d="M137.897 88.6929L141.472 78.8735H142.466L146.13 88.6929H145.226L144.062 85.5201H139.815L138.801 88.6929H137.897ZM140.116 84.7671H143.771L141.943 79.6266L140.116 84.7671Z" fill="#262626"/>
<path d="M126.422 88.6929V78.8735H127.305V87.9398H132.305V88.6929H126.422Z" fill="#262626"/>
<path d="M118.691 81.8256C118.33 80.2392 117.346 79.6268 115.75 79.6268C113.501 79.6268 112.527 81.5545 112.527 83.7633C112.527 85.8517 113.29 87.9501 115.83 87.9501C117.436 87.9501 118.44 86.8657 118.792 85.3898H119.705C119.294 87.1971 118.169 88.7031 115.659 88.7031C112.778 88.7031 111.643 86.434 111.643 83.7935C111.643 80.2292 113.511 78.8838 115.98 78.8838C117.898 78.8838 119.304 79.9079 119.595 81.8356H118.691V81.8256Z" fill="#262626"/>
<path d="M153.188 84.2149V88.6929H152.305V78.8735H155.959C158.007 78.8735 159.132 79.6065 159.132 81.3233C159.132 82.4981 158.69 83.3715 157.616 83.8434C158.72 84.2149 158.78 85.3896 158.8 86.3736C158.841 87.7892 158.961 88.4218 159.192 88.6025V88.6929H158.218C157.857 88.0603 157.947 86.0623 157.806 85.3495C157.596 84.3354 156.833 84.2049 155.949 84.2049H153.188V84.2149ZM155.939 83.4619C157.244 83.4619 158.258 82.6788 158.258 81.3635C158.258 79.9679 157.174 79.6266 155.989 79.6266H153.188V83.4619H155.939Z" fill="#262626"/>
<path d="M166.29 88.6929V78.8735H167.174V88.6929H166.29Z" fill="#262626"/>
<path d="M173.76 78.8735H180.557V79.6266H177.595V88.6929H176.711V79.6266H173.76V78.8735Z" fill="#262626"/>
<path d="M189.683 83.6125L192.494 78.8735H193.518L190.145 84.3756V88.6929H189.261V84.4458L185.938 78.8735H186.942L189.683 83.6125Z" fill="#262626"/>
<path d="M225.063 80.0678H225.033V88.6924H224.15V78.873H225.144L230.535 87.5076H230.555V78.873H231.439V88.6924H230.415L225.063 80.0678Z" fill="#262626"/>
<path d="M250.856 88.6923V78.873H257.06V79.6261H251.739V83.2405H256.548V83.9935H251.739V87.9493H257.191V88.7024H250.856V88.6923Z" fill="#262626"/>
<path d="M279.801 84.2144V88.6924H278.917V78.873H282.572C284.62 78.873 285.744 79.606 285.744 81.3229C285.744 82.4976 285.302 83.371 284.228 83.8429C285.332 84.2144 285.393 85.3891 285.413 86.3731C285.453 87.7888 285.573 88.4213 285.804 88.602V88.6924H284.83C284.469 88.0598 284.559 86.0618 284.419 85.349C284.208 84.3349 283.445 84.2044 282.561 84.2044H279.801V84.2144ZM282.541 83.4614C283.847 83.4614 284.861 82.6783 284.861 81.363C284.861 79.9674 283.776 79.6261 282.592 79.6261H279.79V83.4614H282.541Z" fill="#262626"/>
<path d="M292.762 88.6924V78.873H293.645V88.6924H292.762Z" fill="#262626"/>
<path d="M215.867 88.6924V78.873H216.75V88.6924H215.867Z" fill="#262626"/>
<path d="M237.703 78.873H244.5V79.6261H241.539V88.6924H240.655V79.6261H237.703V78.873Z" fill="#262626"/>
<path d="M299.93 78.873H306.727V79.6261H303.766V88.6924H302.882V79.6261H299.93V78.873Z" fill="#262626"/>
<path d="M316.165 83.612L318.976 78.873H320L316.627 84.3751V88.6924H315.743V84.4454L312.42 78.873H313.424L316.165 83.612Z" fill="#262626"/>
<path d="M267.672 84.3753V83.6223H271.658V88.4416H270.905V86.8453C270.263 87.9597 269.259 88.6826 267.421 88.6826C265.062 88.6826 263.345 87.036 263.345 83.7227C263.345 80.9918 264.721 78.8633 267.652 78.8633C269.61 78.8633 271.156 79.8171 271.558 81.8151H270.654C270.343 80.4195 269.108 79.6163 267.723 79.6163C265.263 79.6163 264.229 81.4336 264.229 84.0741C264.229 86.1324 265.474 87.9396 267.612 87.9396C268.616 87.9396 269.811 87.5179 270.423 86.3131C270.725 85.7308 270.815 85.0782 270.825 84.3854H267.672V84.3753Z" fill="#262626"/>
<path d="M205.094 77.3774H204.301V90.1888H205.094V77.3774Z" fill="#262626"/>
<path d="M100.328 77.3774H99.5352V90.1888H100.328V77.3774Z" fill="#262626"/>
<path d="M65.5102 66.755C65.1488 66.755 64.7673 66.6145 64.4862 66.3635C64.2452 66.1627 64.0946 65.9217 63.9641 65.7008L54.4965 47.1766H12.8613L3.41383 65.7008L3.32347 65.8514C3.11264 66.1125 2.96204 66.2631 2.79136 66.3836C2.54037 66.5743 2.19901 66.6848 1.87774 66.6848C1.40586 66.6848 0.96411 66.5241 0.622756 66.243C0.241242 65.9317 -0.00974929 65.3996 0.000290551 64.8574C0.000290551 64.7369 0.0103488 64.5863 0.0505081 64.4157C0.0906675 64.2751 0.140858 64.1145 0.261336 63.9538L8.86548 47.1766H4.34756C3.80541 47.1766 3.3034 46.9557 2.98212 46.5742C2.67089 46.263 2.49018 45.771 2.49018 45.2489C2.49018 44.6866 2.68094 44.2248 3.05241 43.9035C3.49416 43.5521 3.92587 43.5019 4.33751 43.4919H10.6827L32.0675 1.62419L32.1178 1.50372C32.2483 1.23263 32.6298 0.409331 33.6539 0.278809C33.6639 0.278809 33.6639 0.278809 33.6639 0.278809C34.5072 0.278809 35.2 0.73062 35.6317 1.4736L35.6618 1.5238L35.6819 1.58404L67.217 64.1044L67.2572 64.2048C67.3074 64.3052 67.3776 64.4759 67.3877 64.757C67.3977 65.249 67.217 65.7309 66.8957 66.1024C66.5745 66.494 66.0524 66.7349 65.5504 66.7349H65.5102V66.755ZM52.6693 43.4919L33.7843 5.94149L14.7187 43.4919H52.6693Z" fill="url(#paint0_linear_122_118)"/>
<path d="M136.412 66.7548C136.05 66.7548 135.679 66.6142 135.398 66.3732C135.157 66.1624 135.006 65.9315 134.876 65.7005L125.418 47.1764H83.7727L74.3252 65.7005L74.2449 65.8411C74.0241 66.1122 73.8735 66.2628 73.7028 66.3833C73.4317 66.5741 73.1104 66.6845 72.7791 66.6845C72.3073 66.6845 71.8655 66.5238 71.5242 66.2427C71.1426 65.9415 70.8916 65.3993 70.9017 64.8572C70.9017 64.7066 70.9218 64.566 70.9519 64.4154C70.982 64.2949 71.0422 64.1242 71.1627 63.9435L79.7568 47.1764H75.2389C74.7068 47.1764 74.1947 46.9555 73.8735 46.584C73.5622 46.2627 73.3815 45.7707 73.3815 45.2486C73.3815 44.6864 73.5723 44.2346 73.9437 43.9033C74.3855 43.5518 74.8172 43.5016 75.2288 43.4916H81.574L102.959 1.64401L102.989 1.56369C103.24 1.03155 103.642 0.399017 104.545 0.288574C104.555 0.288574 104.555 0.288574 104.555 0.288574C105.399 0.288574 106.091 0.740386 106.513 1.48336L138.098 64.1242L138.108 64.1845C138.189 64.3652 138.249 64.5158 138.259 64.7668C138.269 65.2588 138.088 65.7407 137.777 66.1122C137.436 66.5138 136.934 66.7548 136.422 66.7548H136.412ZM123.571 43.4916L104.686 5.94122L85.6201 43.4916H123.571Z" fill="url(#paint1_linear_122_118)"/>
<path d="M143.57 66.7548C143.038 66.7548 142.546 66.5239 142.235 66.1223C141.964 65.791 141.813 65.3693 141.813 64.8572V2.23643C141.793 1.59385 142.205 0.911124 142.827 0.609918C143.239 0.389034 143.741 0.278595 144.393 0.268555H165.146C172.565 0.268555 178.418 2.08584 182.545 5.67019C186.721 9.29471 188.83 14.4453 188.819 20.9815C188.83 27.7486 186.591 32.9796 182.183 36.5338C177.856 40.0278 171.491 41.7948 163.278 41.7948C163.148 41.7948 163.017 41.7948 162.887 41.7948L195.205 63.4717C195.406 63.6223 195.556 63.7729 195.697 63.9536C195.857 64.1745 196.028 64.4657 196.038 64.8974C196.048 65.3291 195.867 65.791 195.536 66.1524C195.215 66.5139 194.723 66.7347 194.231 66.7347C193.9 66.7247 193.689 66.6444 193.518 66.5641C193.438 66.5239 193.378 66.4938 193.247 66.4235L155.859 41.4234C155.126 41.0619 154.684 40.3692 154.704 39.6764C154.694 39.2647 154.855 38.833 155.146 38.5218C155.437 38.1804 155.899 37.9796 156.401 37.9796H157.084C158.349 38.0699 159.834 38.1101 161.571 38.1101C165.627 38.1101 168.81 37.9294 171.029 37.5579C173.187 37.2065 175.115 36.594 176.752 35.7607C179.553 34.3852 181.601 32.5177 183.016 30.0378C184.412 27.5679 185.125 24.5257 185.125 20.9815C185.125 17.9293 184.512 15.1682 183.318 12.7887C182.103 10.3891 180.376 8.45131 178.027 6.84488C176.511 5.83082 174.734 5.08784 172.756 4.64607C170.728 4.18422 167.846 3.95329 164.212 3.95329H145.498V64.8472C145.508 65.3392 145.307 65.8412 144.955 66.1825C144.644 66.5038 144.202 66.6946 143.66 66.7347L143.57 66.7548Z" fill="url(#paint2_linear_122_118)"/>
<path d="M265.082 66.7551C264.731 66.7551 264.359 66.6146 264.068 66.3836C263.847 66.1728 263.687 65.972 263.536 65.7009L254.078 47.1767H212.443L202.996 65.7009L202.915 65.8314C202.745 66.0523 202.584 66.223 202.373 66.3736C202.102 66.5744 201.771 66.6748 201.45 66.6748C200.968 66.6748 200.526 66.5142 200.195 66.223C199.813 65.9218 199.562 65.3897 199.572 64.8475C199.572 64.6868 199.592 64.5362 199.632 64.3856C199.653 64.2651 199.723 64.0844 199.843 63.9238L208.427 47.1667H203.919C203.377 47.1667 202.875 46.9458 202.544 46.5743C202.233 46.243 202.042 45.751 202.052 45.2289C202.052 44.6667 202.243 44.2148 202.614 43.8835C203.066 43.5321 203.498 43.4819 203.909 43.4719H210.245L231.609 1.65438C231.619 1.62426 231.639 1.57406 231.67 1.51382C231.81 1.21261 232.202 0.389312 233.206 0.258789C233.216 0.258789 233.216 0.258789 233.216 0.258789C234.069 0.258789 234.762 0.710611 235.184 1.46363L234.712 1.90538L235.264 1.62426L266.729 63.984L266.749 63.9941L266.769 64.0443L266.849 64.1045V64.2752C266.889 64.3655 266.929 64.5161 266.95 64.727C266.95 65.239 266.769 65.721 266.448 66.0824C266.116 66.5141 265.604 66.7551 265.082 66.7551ZM252.241 43.4919L233.356 5.94155L214.291 43.4919H252.241Z" fill="url(#paint3_linear_122_118)"/>
<path d="M286.276 66.755C285.523 66.755 284.851 66.3133 284.389 65.5201C284.349 65.4498 284.308 65.3695 284.278 65.2691L252.874 3.06999C252.783 2.93946 252.733 2.81898 252.713 2.72862C252.643 2.56798 252.633 2.3973 252.633 2.2467C252.623 1.76477 252.823 1.25271 253.175 0.891262C253.526 0.499694 253.998 0.278809 254.48 0.278809C254.831 0.278809 255.163 0.389248 255.434 0.590053C255.775 0.841058 255.926 1.13222 256.046 1.37319L286.146 61.0723L316.587 1.31295L316.667 1.19247C316.878 0.931426 317.028 0.780824 317.199 0.660341C317.48 0.469577 317.811 0.359132 318.123 0.359132C318.635 0.359132 319.097 0.539852 319.428 0.841058C319.789 1.16234 320 1.66436 319.99 2.19649C319.97 2.4475 319.94 2.52782 319.92 2.60814L319.91 2.62821V3.14027H319.709L287.963 65.3896C287.923 65.4699 287.883 65.5502 287.832 65.6104C287.612 66.0321 287.22 66.6848 286.306 66.745H286.286H286.276V66.755Z" fill="url(#paint4_linear_122_118)"/>
<defs>
<linearGradient id="paint0_linear_122_118" x1="-4.61703" y1="33.5203" x2="495.538" y2="33.5203" gradientUnits="userSpaceOnUse">
<stop stop-color="#00A5A3"/>
<stop offset="0.0584" stop-color="#39A5B4"/>
<stop offset="0.1321" stop-color="#57A5C5"/>
<stop offset="0.2035" stop-color="#68A3CF"/>
<stop offset="0.2709" stop-color="#71A2D5"/>
<stop offset="0.33" stop-color="#74A2D7"/>
<stop offset="0.66" stop-color="#D65497"/>
<stop offset="0.7258" stop-color="#D7589A"/>
<stop offset="0.7959" stop-color="#DB66A2"/>
<stop offset="0.868" stop-color="#E17BAE"/>
<stop offset="0.941" stop-color="#EB98C0"/>
<stop offset="1" stop-color="#F4B3D2"/>
</linearGradient>
<linearGradient id="paint1_linear_122_118" x1="-4.61703" y1="33.5201" x2="495.538" y2="33.5201" gradientUnits="userSpaceOnUse">
<stop stop-color="#00A5A3"/>
<stop offset="0.0584" stop-color="#39A5B4"/>
<stop offset="0.1321" stop-color="#57A5C5"/>
<stop offset="0.2035" stop-color="#68A3CF"/>
<stop offset="0.2709" stop-color="#71A2D5"/>
<stop offset="0.33" stop-color="#74A2D7"/>
<stop offset="0.66" stop-color="#D65497"/>
<stop offset="0.7258" stop-color="#D7589A"/>
<stop offset="0.7959" stop-color="#DB66A2"/>
<stop offset="0.868" stop-color="#E17BAE"/>
<stop offset="0.941" stop-color="#EB98C0"/>
<stop offset="1" stop-color="#F4B3D2"/>
</linearGradient>
<linearGradient id="paint2_linear_122_118" x1="-4.61711" y1="33.518" x2="495.538" y2="33.518" gradientUnits="userSpaceOnUse">
<stop stop-color="#00A5A3"/>
<stop offset="0.0584" stop-color="#39A5B4"/>
<stop offset="0.1321" stop-color="#57A5C5"/>
<stop offset="0.2035" stop-color="#68A3CF"/>
<stop offset="0.2709" stop-color="#71A2D5"/>
<stop offset="0.33" stop-color="#74A2D7"/>
<stop offset="0.66" stop-color="#D65497"/>
<stop offset="0.7258" stop-color="#D7589A"/>
<stop offset="0.7959" stop-color="#DB66A2"/>
<stop offset="0.868" stop-color="#E17BAE"/>
<stop offset="0.941" stop-color="#EB98C0"/>
<stop offset="1" stop-color="#F4B3D2"/>
</linearGradient>
<linearGradient id="paint3_linear_122_118" x1="-4.61713" y1="33.5204" x2="495.538" y2="33.5204" gradientUnits="userSpaceOnUse">
<stop stop-color="#00A5A3"/>
<stop offset="0.0584" stop-color="#39A5B4"/>
<stop offset="0.1321" stop-color="#57A5C5"/>
<stop offset="0.2035" stop-color="#68A3CF"/>
<stop offset="0.2709" stop-color="#71A2D5"/>
<stop offset="0.33" stop-color="#74A2D7"/>
<stop offset="0.66" stop-color="#D65497"/>
<stop offset="0.7258" stop-color="#D7589A"/>
<stop offset="0.7959" stop-color="#DB66A2"/>
<stop offset="0.868" stop-color="#E17BAE"/>
<stop offset="0.941" stop-color="#EB98C0"/>
<stop offset="1" stop-color="#F4B3D2"/>
</linearGradient>
<linearGradient id="paint4_linear_122_118" x1="-4.61715" y1="33.5158" x2="495.538" y2="33.5158" gradientUnits="userSpaceOnUse">
<stop stop-color="#00A5A3"/>
<stop offset="0.0584" stop-color="#39A5B4"/>
<stop offset="0.1321" stop-color="#57A5C5"/>
<stop offset="0.2035" stop-color="#68A3CF"/>
<stop offset="0.2709" stop-color="#71A2D5"/>
<stop offset="0.33" stop-color="#74A2D7"/>
<stop offset="0.66" stop-color="#D65497"/>
<stop offset="0.7258" stop-color="#D7589A"/>
<stop offset="0.7959" stop-color="#DB66A2"/>
<stop offset="0.868" stop-color="#E17BAE"/>
<stop offset="0.941" stop-color="#EB98C0"/>
<stop offset="1" stop-color="#F4B3D2"/>
</linearGradient>
</defs>
</svg>
